<svg width="24" height="24" viewBox="0 0 24 24" fill="none" xmlns="http://www.w3.org/2000/svg"><path d="M16.258 3.283 C 14.910 3.356,13.636 3.612,11.700 4.199 C 8.524 5.162,7.979 5.271,6.540 5.227 C 5.680 5.201,5.374 5.164,4.144 4.939 C 3.179 4.763,2.698 4.746,2.365 4.878 C 1.909 5.058,1.561 5.399,1.403 5.821 C 1.242 6.252,1.236 6.539,1.248 12.780 L 1.260 18.780 1.348 19.012 C 1.592 19.658,2.057 20.008,3.059 20.298 C 4.269 20.649,6.119 20.821,7.672 20.726 C 9.288 20.627,10.223 20.429,12.987 19.597 C 15.449 18.855,16.118 18.731,17.420 18.774 C 18.276 18.802,18.664 18.849,19.840 19.064 C 20.817 19.242,21.300 19.261,21.624 19.133 C 22.078 18.953,22.440 18.598,22.598 18.177 C 22.643 18.055,22.699 17.780,22.722 17.567 C 22.749 17.314,22.759 15.108,22.752 11.200 L 22.740 5.220 22.652 4.988 C 22.539 4.689,22.346 4.423,22.094 4.217 C 21.650 3.855,20.595 3.541,19.280 3.380 C 18.838 3.326,17.187 3.233,16.920 3.247 C 16.865 3.250,16.567 3.266,16.258 3.283 M19.031 4.857 C 19.929 4.962,20.856 5.190,21.138 5.375 L 21.240 5.442 21.240 11.521 C 21.240 17.525,21.239 17.601,21.161 17.679 C 21.106 17.734,21.047 17.752,20.971 17.739 C 20.910 17.728,20.509 17.657,20.080 17.580 C 19.651 17.503,19.105 17.413,18.866 17.380 C 18.200 17.287,17.081 17.240,16.495 17.282 C 15.338 17.363,14.719 17.505,12.240 18.253 C 10.498 18.780,9.716 18.970,8.560 19.149 C 7.974 19.239,5.753 19.250,5.060 19.166 C 4.134 19.053,3.015 18.774,2.830 18.610 C 2.764 18.551,2.760 18.209,2.760 12.491 C 2.760 8.393,2.773 6.410,2.801 6.357 C 2.861 6.246,3.013 6.256,4.001 6.437 C 6.023 6.808,7.218 6.843,8.680 6.576 C 9.333 6.457,9.997 6.279,11.580 5.800 C 13.601 5.188,14.602 4.953,15.761 4.820 C 16.401 4.747,18.273 4.768,19.031 4.857 M17.799 8.276 C 17.587 8.319,17.409 8.441,17.331 8.598 C 17.266 8.729,17.260 8.920,17.260 11.000 C 17.260 13.206,17.262 13.264,17.343 13.417 C 17.458 13.637,17.668 13.740,18.000 13.740 C 18.332 13.740,18.542 13.637,18.657 13.417 C 18.738 13.264,18.740 13.206,18.740 11.000 C 18.740 8.910,18.735 8.729,18.669 8.597 C 18.546 8.351,18.153 8.206,17.799 8.276 M11.433 8.798 C 10.702 8.932,10.146 9.242,9.616 9.812 C 9.030 10.443,8.760 11.127,8.760 11.979 C 8.760 12.932,9.038 13.598,9.720 14.280 C 10.397 14.957,11.069 15.240,12.000 15.240 C 12.931 15.240,13.603 14.957,14.280 14.280 C 14.957 13.603,15.240 12.931,15.240 12.000 C 15.240 11.131,14.972 10.445,14.384 9.812 C 13.939 9.334,13.474 9.039,12.914 8.878 C 12.585 8.785,11.754 8.740,11.433 8.798 M5.799 10.276 C 5.587 10.319,5.409 10.441,5.331 10.598 C 5.266 10.729,5.260 10.920,5.260 13.000 C 5.260 15.206,5.262 15.264,5.343 15.417 C 5.458 15.637,5.668 15.740,6.000 15.740 C 6.332 15.740,6.542 15.637,6.657 15.417 C 6.738 15.264,6.740 15.206,6.740 13.000 C 6.740 10.910,6.735 10.729,6.669 10.597 C 6.546 10.351,6.153 10.206,5.799 10.276 M12.500 10.328 C 12.895 10.426,13.357 10.822,13.569 11.243 C 13.787 11.675,13.787 12.320,13.570 12.760 C 13.425 13.053,13.023 13.456,12.753 13.579 C 12.429 13.726,12.056 13.778,11.730 13.722 C 11.330 13.653,11.070 13.518,10.787 13.231 C 10.490 12.930,10.335 12.634,10.284 12.270 C 10.202 11.685,10.365 11.194,10.780 10.780 C 11.249 10.310,11.823 10.159,12.500 10.328 " stroke="none" fill-rule="evenodd" fill="black"></path></svg>