<svg width="24" height="24" viewBox="0 0 24 24" fill="none" xmlns="http://www.w3.org/2000/svg"><path d="M7.267 2.277 C 6.905 2.352,6.750 2.592,6.768 3.047 C 6.782 3.392,6.848 3.521,7.084 3.660 C 7.217 3.738,7.314 3.740,12.200 3.764 C 17.249 3.787,17.430 3.793,18.010 3.942 C 18.941 4.181,19.819 5.059,20.058 5.990 C 20.207 6.568,20.212 6.754,20.236 11.800 C 20.260 16.686,20.262 16.783,20.340 16.916 C 20.488 17.167,20.602 17.220,21.000 17.220 C 21.398 17.220,21.512 17.167,21.660 16.916 C 21.738 16.783,21.740 16.697,21.752 12.500 C 21.766 7.080,21.734 6.327,21.452 5.420 C 21.118 4.351,20.289 3.371,19.268 2.837 C 18.724 2.553,18.207 2.410,17.380 2.317 C 16.909 2.263,7.510 2.226,7.267 2.277 M4.760 5.787 C 4.475 5.817,4.015 5.932,3.838 6.017 C 3.055 6.395,2.503 7.091,2.331 7.920 C 2.265 8.236,2.260 8.653,2.260 13.720 C 2.260 19.566,2.257 19.480,2.460 20.021 C 2.703 20.672,3.290 21.271,3.934 21.526 C 4.475 21.740,4.294 21.733,9.920 21.749 C 15.330 21.765,15.805 21.754,16.332 21.603 C 16.901 21.439,17.435 21.038,17.784 20.513 C 18.006 20.181,18.141 19.802,18.200 19.351 C 18.230 19.123,18.240 17.308,18.231 13.540 L 18.220 8.060 18.129 7.741 C 17.876 6.848,17.151 6.123,16.259 5.871 L 15.940 5.781 10.420 5.776 C 7.384 5.774,4.837 5.778,4.760 5.787 M15.383 7.277 C 15.967 7.315,16.128 7.371,16.384 7.627 C 16.618 7.861,16.688 8.070,16.725 8.640 C 16.767 9.314,16.765 18.202,16.722 18.870 C 16.695 19.290,16.670 19.435,16.601 19.570 C 16.476 19.812,16.261 20.020,16.024 20.128 L 15.820 20.220 10.420 20.232 C 6.610 20.240,4.943 20.230,4.760 20.199 C 4.240 20.111,3.879 19.743,3.800 19.220 C 3.771 19.030,3.761 17.215,3.769 13.560 L 3.780 8.180 3.865 7.995 C 3.982 7.743,4.208 7.503,4.428 7.396 C 4.567 7.329,4.720 7.301,5.056 7.280 C 5.703 7.240,14.766 7.237,15.383 7.277 " stroke="none" fill-rule="evenodd" fill="black"></path></svg>